/* XPM */
static char *dummy[]={
"11 11 3 1",
"a c None",
". c #444444",
"# c #696969",
".###aaaaaaa",
".###aaaaaaa",
".###aaaaaaa",
".###aaaaaaa",
".###aaaaaaa",
".###aaaaaaa",
".###aaaaaaa",
".##########",
".##########",
".##########",
"..........."};
