/* XPM */
static char *dummy[]={
"11 11 3 1",
". c None",
"a c #202020",
"# c #2e2e2e",
".......###a",
".......###a",
".......###a",
".......###a",
".......###a",
".......###a",
".......###a",
"##########a",
"##########a",
"##########a",
"aaaaaaaaaaa"};
