/* XPM */
static char *dummy[]={
"20 24 24 1",
". c #202020",
"k c #212121",
"j c #222222",
"g c #232323",
"f c #242424",
"q c #262626",
"t c #272727",
"r c #282828",
"u c #292929",
"v c #2a2a2a",
"s c #2b2b2b",
"h c #2d2d2d",
"e c #2e2e2e",
"m c #2f2f2f",
"l c #313131",
"n c #323232",
"p c #333233",
"o c #343434",
"i c #353535",
"d c #373737",
"c c #393939",
"b c #3b3b3b",
"a c #3d3d3d",
"# c #3e3e3e",
"....................",
"####################",
"aaaaaaaaaaaaaaaaaaaa",
"bbbbbbbbbbbbbbbbbbbb",
"cccccccccccccccccccc",
"ddddddddefghdddddddd",
"dddddi.jjjjjkkiddddd",
"iiiiljgm####njjmiiii",
"oooojkdccccccc.jpooo",
"nnnkgmoooooooongjnnn",
"lllkfmmmmmmmmmmqkmll",
"mmrjqssssssssssqjqmm",
"eekjqtuuvvvvuutqj.ee",
"hhfjqqrseeeesrqqjjhh",
"hhsjqthmmmmmmhtqjshh",
"ssvjfvmmmmmmmmvqjvss",
"vvvqgvmmmmmmmmugfvvv",
"vvvvkjhmmmmmmhjjsvvv",
"uuuuhkgtheehtgjeruuu",
"rrrrrhuggggggrhrrrrr",
"ttttttteiooiettttttt",
"tttttttttttttttttttt",
"qqqqqqqqqqqqqqqqqqqq",
"...................."};
