/* XPM */
static char *dummy[]={
"5 24 19 1",
". c #202020",
"q c #262626",
"p c #272727",
"o c #282828",
"n c #292929",
"m c #2a2a2a",
"l c #2b2b2b",
"k c #2d2d2d",
"j c #2e2e2e",
"i c #2f2f2f",
"h c #313131",
"g c #323232",
"f c #343434",
"e c #353535",
"d c #373737",
"c c #393939",
"b c #3b3b3b",
"a c #3d3d3d",
"# c #3e3e3e",
".....",
"#####",
"aaaaa",
"bbbbb",
"ccccc",
"ddddd",
"ddddd",
"eeeee",
"fffff",
"ggggg",
"hhhhh",
"iiiii",
"jjjjj",
"kkkkk",
"kkkkk",
"lllll",
"mmmmm",
"mmmmm",
"nnnnn",
"ooooo",
"ppppp",
"ppppp",
"qqqqq",
"....."};
