/* XPM */
static char *dummy[]={
"5 24 23 1",
". c None",
"a c #202020",
"# c #212121",
"f c #222222",
"b c #232323",
"d c #262626",
"u c #272727",
"t c #282828",
"s c #292929",
"r c #2a2a2a",
"q c #2b2b2b",
"p c #2d2d2d",
"o c #2e2e2e",
"n c #2f2f2f",
"m c #313131",
"l c #323232",
"k c #343434",
"j c #353535",
"i c #373737",
"h c #393939",
"g c #3b3b3b",
"e c #3d3d3d",
"c c #3e3e3e",
"....#",
"..abc",
".adee",
".fggg",
"ahhhh",
"aiiii",
"aiiii",
"ajjjj",
"akkkk",
"allll",
"ammmm",
"annnn",
"aoooo",
"apppp",
"apppp",
"aqqqq",
"arrrr",
"arrrr",
"assss",
"atttt",
"auuuu",
"auuuu",
"adddd",
"aaaaa"};
