/* XPM */
static char *dummy[]={
"20 24 126 2",
"Qt c #202020",
"#P c #212121",
".7 c #222222",
"#V c #232323",
"#h c #242424",
"#3 c #252525",
"#j c #262626",
"#O c #272727",
".P c #282828",
".V c #282d25",
".Y c #28431b",
".5 c #292929",
"#i c #2a2a2a",
".Q c #2a2e28",
".k c #2a421e",
".n c #2a451e",
".4 c #2a4c1b",
".J c #2b2b2b",
".j c #2b2e29",
".o c #2b2f29",
".6 c #2c2c2c",
"#4 c #2c3229",
".X c #2e2e2e",
".h c #2f2f2f",
".H c #2f302f",
"#J c #2f312f",
"#U c #2f382b",
".K c #2f591b",
".W c #303030",
".I c #313131",
".A c #323231",
".r c #323232",
"#7 c #32402b",
".q c #333333",
"#W c #334c28",
".i c #343334",
".g c #343434",
".B c #343533",
".s c #343534",
"#5 c #344b29",
"#N c #345426",
"#K c #345723",
".f c #353535",
"#2 c #355228",
".e c #363636",
".O c #36681e",
".8 c #366a1d",
".d c #373737",
".c c #383838",
"#6 c #395a29",
".b c #3a3a3a",
".t c #3a562d",
".p c #3c3c3c",
"#g c #3c791f",
".a c #3d3d3d",
".# c #3e3d3e",
"#C c #416032",
".l c #41692e",
"#k c #417628",
".z c #425e35",
"#t c #428025",
".m c #436b30",
"#Q c #45762d",
"#u c #466438",
".C c #53863b",
"#D c #5bbe2d",
".R c #5bbf2c",
"#I c #5cc12d",
".Z c #5dc42d",
"#l c #5ec42e",
".3 c #5fc52f",
".G c #619249",
".U c #65c538",
".9 c #66c738",
"#f c #69c83c",
"#B c #69c83d",
"#v c #6bc940",
"#s c #6dc942",
"#m c #6eca43",
"#. c #76cd4e",
"#e c #77cd4e",
"#d c #79ce51",
"## c #79ce52",
"#M c #7ccf55",
"#H c #7dcf56",
"#X c #7fc95d",
"#1 c #7fca5c",
"#a c #7fd059",
"#E c #80d05b",
"#c c #84d25f",
"#b c #84d260",
".0 c #87d363",
"#r c #8bd468",
".2 c #8bd469",
"#T c #8ccc6f",
"#n c #8cd46a",
".1 c #8dd56c",
"#R c #94d875",
"#A c #95d876",
"#0 c #96d978",
"#w c #97d978",
"#Y c #97d979",
"#q c #9ddb80",
"#o c #9ddb81",
"#Z c #9edc82",
"#p c #a3dd88",
".S c #a4de89",
".T c #a4de8a",
"#L c #a6de8c",
"#G c #a7df8d",
"#F c #a7df8e",
"#z c #a8df8e",
".L c #a8df8f",
"#S c #aae091",
"#x c #aae092",
"#y c #abe092",
".N c #b2e39c",
".u c #b5e0a1",
".M c #bbe6a7",
".y c #bde4ab",
".D c #ccecbc",
".F c #cfedc1",
".E c #d2eec5",
".v c #e3f4db",
".x c #e5f5de",
".w c #e9f7e2",
"QtQtQtQtQtQtQtQtQtQtQtQtQtQtQtQtQtQtQtQt",
".#.#.#.#.#.#.#.#.#.#.#.#.#.#.#.#.#.#.#.#",
".a.a.a.a.a.a.a.a.a.a.a.a.a.a.a.a.a.a.a.a",
".b.b.b.b.b.b.b.b.b.b.b.b.b.b.b.b.b.b.b.b",
".c.c.c.c.c.c.d.e.d.d.d.d.d.d.d.c.c.c.c.c",
".e.e.e.e.e.f.f.e.g.h.h.i.d.e.e.e.e.e.e.e",
".f.f.f.f.f.e.g.j.k.l.m.n.o.p.f.g.f.f.f.f",
".q.q.q.q.r.s.t.u.v.w.w.x.y.z.A.r.r.r.r.q",
".r.r.r.r.B.C.D.E.E.E.E.E.E.F.G.H.f.r.r.r",
".I.I.I.J.K.L.M.M.M.M.M.M.M.M.N.O.P.r.I.I",
".h.h.h.Q.R.S.T.T.T.T.T.T.T.T.T.U.V.W.h.h",
".X.X.P.Y.Z.0.1.1.1.1.1.1.1.1.2.3.4.5.X.X",
".6.6.7.8.Z.9#.###a#b#c#a#d#e#f.Z#g#h.6.6",
"#i#i#j#k.Z#l#m#n#o#p#p#q#r#s#l.Z#t#h#i#i",
"#i#i.J#u.Z#v#w.L#x#y#y#x#z#A#B.Z#C#i#i#i",
".5.5.P#h#D#E#F#x#y#y#y#y#y#G#H#I#J.P.5.5",
".P.P.P#j#K#a#G#x#y#y#y#y#y#L#M#N#O.P.P.P",
"#O#O#O.P#P#Q#R#G#S#y#y#S#G#T#U#O#O#O#O#O",
"#j#j#j#j.P#V#W#X#Y#Z#Z#0#1#2#j#j#j#j#j#j",
"#3#3#3#3#3#j#3#O#4#5#6#7#j#3#j#3#3#3#3#3",
"#3#3#3#3#3#3#3#3#3#3#3#3#3#3#3#3#3#3#3#3",
"#3#3#3#3#3#3#3#3#3#3#3#3#3#3#3#3#3#3#3#3",
"#h#h#h#h#h#h#h#h#h#h#h#h#h#h#h#h#h#h#h#h",
"QtQtQtQtQtQtQtQtQtQtQtQtQtQtQtQtQtQtQtQt"};
