/* XPM */
static char *dummy[]={
"5 24 21 1",
". c #444444",
"s c #595959",
"r c #5b5b5b",
"q c #5d5d5d",
"p c #5f5f5f",
"o c #616161",
"n c #626262",
"m c #656465",
"l c #676767",
"k c #6a696a",
"j c #6c6c6c",
"i c #6e6e6e",
"h c #717171",
"g c #727272",
"f c #757475",
"e c #777777",
"d c #787878",
"c c #7b7a7b",
"b c #7d7d7d",
"a c #818081",
"# c #818181",
".....",
"#####",
"aaaaa",
"bbbbb",
"ccccc",
"ddddd",
"eeeee",
"fffff",
"ggggg",
"hhhhh",
"iiiii",
"jjjjj",
"kkkkk",
"lllll",
"lllll",
"mmmmm",
"nnnnn",
"ooooo",
"ppppp",
"qqqqq",
"rrrrr",
"rrrrr",
"sssss",
"....."};
