/* XPM */
static char *dummy[]={
"20 24 113 2",
"Qt c #202020",
"#U c #262626",
"#P c #272727",
".F c #282828",
"#a c #292929",
"#x c #2a2929",
"#y c #2a2a2a",
"#. c #2b2b2b",
".Z c #2c2c2c",
"#E c #2d2c2c",
"## c #2d2d2d",
".R c #2e2e2e",
".r c #2f2e2e",
".L c #2f2f2f",
".E c #303030",
".j c #313131",
".g c #323232",
".h c #333333",
".q c #343434",
".i c #353535",
".f c #363636",
".d c #373737",
".e c #383838",
".c c #393939",
".b c #3b3b3b",
".M c #3d3535",
".a c #3d3d3d",
".# c #3e3e3e",
".Q c #433434",
".k c #473c3c",
".p c #4e3c3c",
".S c #5f1b1b",
".l c #5f1e1e",
".o c #611f1f",
"#O c #653d3d",
".Y c #682121",
"#z c #6a3637",
"#K c #6c3d3d",
"#Q c #6c3f3f",
"#T c #6d3838",
".y c #6e4343",
"#R c #703f3f",
".s c #713636",
".G c #731d1d",
"#S c #733c3c",
".K c #772424",
"#D c #773232",
".D c #7a4848",
".0 c #7f2020",
"#q c #814141",
"#k c #834747",
".m c #853636",
".n c #873838",
"#b c #8b2d2d",
"#F c #8c3636",
".9 c #8d2323",
"#J c #8f3939",
"#j c #932a2a",
"#r c #944b4c",
".z c #9c4444",
".N c #c73232",
"#w c #c83333",
"#s c #cb6060",
".T c #cc3333",
"#c c #cc3434",
".X c #cd3535",
".P c #cd3e3e",
"#L c #ce6161",
".1 c #cf3e3e",
"#p c #cf4242",
"#N c #cf6060",
".8 c #d04242",
"#l c #d04545",
"#G c #d07676",
"#i c #d14747",
"#d c #d14949",
"#A c #d25e5e",
".2 c #d45353",
".7 c #d45656",
".3 c #d45757",
"#C c #d55a5a",
"#v c #d65b5b",
".4 c #d65e5e",
".6 c #d76464",
".5 c #d86464",
".U c #d96868",
".W c #da6d6d",
"#e c #da6e6e",
".V c #db7070",
"#I c #dc7676",
"#o c #dd7979",
"#m c #de7c7c",
"#h c #df8484",
"#f c #e08484",
"#M c #e08585",
"#g c #e18c8c",
".O c #e28d8d",
"#B c #e38f8f",
"#u c #e39090",
"#t c #e39191",
".H c #e39292",
".t c #e3a4a4",
"#H c #e49494",
"#n c #e49595",
".J c #e79e9e",
".x c #e7adad",
".I c #e9a9a9",
".A c #eebebe",
".C c #f0c3c3",
".B c #f0c6c6",
".u c #f6dbdb",
".w c #f6dede",
".v c #f8e3e3",
"QtQtQtQtQtQtQtQtQtQtQtQtQtQtQtQtQtQtQtQt",
".#.#.#.#.#.#.#.#.#.#.#.#.#.#.#.#.#.#.#.#",
".a.a.a.a.a.a.a.a.a.a.a.a.a.a.a.a.a.a.a.a",
".b.b.b.b.b.b.b.b.b.b.b.b.b.b.b.b.b.b.b.b",
".c.c.c.c.c.c.c.d.c.e.c.c.d.c.c.c.c.c.c.c",
".d.d.d.d.d.d.d.d.f.g.h.f.d.d.d.d.d.d.d.d",
".d.d.d.d.f.i.j.k.l.m.n.o.p.q.d.f.d.d.d.d",
".i.i.i.i.i.r.s.t.u.v.v.w.x.y.g.i.q.i.i.i",
".q.q.q.q.r.z.A.B.B.B.B.B.B.C.D.E.q.q.q.q",
".g.g.g.F.G.H.I.I.I.I.I.I.I.I.J.K.L.g.g.g",
".j.j.g.M.N.O.O.O.O.O.O.O.O.O.O.P.Q.g.j.j",
".L.L.R.S.T.U.V.V.V.V.V.V.V.V.W.X.Y.Z.L.L",
".R.R.F.0.T.1.2.3.4.5.6.4.7.2.8.T.9#..R.R",
"#####a#b.T#c#d#e#f#g#g#h.W#i#c.T#j#a####",
"####.R#k.T#l#m.H#n#n#n#n.H#o#p.T#q######",
"#.#..Z.E#r#s#t#n#n#n#n#n#n#u#v#w#x#y#.#.",
"#y#y#y#.#z#A#u#n#n#n#n#n#n#B#C#D.F#y#y#y",
"#y#y#y#y#E#F#G#t#H#n#n#H#u#I#J#.#y#y#y#y",
"#a#a#a#a#a#.#K#L#m#M#M#m#N#O#P#a.F#a#a#a",
".F.F.F.F.F#a#..r#Q#R#S#T#a#y.F.F.F.F.F.F",
"#P#P#P#P#P#P#P.F#y#y#a#a.F#P#P#P#P#P#P#P",
"#P#P#P#P#P#P#P#P#P#P#P#P#P#P#P#P#P#P#P#P",
"#U#U#U#U#U#U#U#U#U#U#U#U#U#U#U#U#U#U#U#U",
"QtQtQtQtQtQtQtQtQtQtQtQtQtQtQtQtQtQtQtQt"};
