/* XPM */
static char *dummy[]={
"20 24 118 2",
".1 c #1c2c38",
".I c #1c2f3f",
".4 c #1c3549",
".V c #1d2932",
".M c #1d3547",
"#a c #1d3a52",
".k c #1e2933",
".n c #1e2a34",
"Qt c #202020",
"#F c #213240",
"#m c #213f57",
"#c c #223d52",
"#Z c #242424",
"#P c #24313c",
"#X c #243644",
"#w c #245e8d",
".P c #245e8e",
".W c #246395",
"#n c #252525",
"#I c #252c32",
"#U c #252f38",
"#d c #256395",
"#O c #262626",
".o c #26292b",
"#J c #263f53",
".0 c #266396",
"#b c #272727",
".S c #27292a",
"#N c #272c2f",
"#Y c #27323a",
".r c #273541",
".l c #273b4b",
"#C c #27577e",
"#E c #282828",
".O c #282a2b",
"#W c #28323a",
".m c #283c4c",
".3 c #292929",
"#v c #293c4a",
".U c #2a2a2a",
".2 c #2b2b2b",
"#D c #2b2b2c",
".p c #2c2c2c",
"#V c #2c2c2d",
"#o c #2c3135",
".x c #2c3b48",
".H c #2d2d2d",
".R c #2d6694",
".5 c #2d6897",
".T c #2e2e2e",
".j c #2e2f31",
".N c #2f2f2f",
".E c #2f2f30",
".z c #2f495e",
".G c #303030",
".y c #303131",
"## c #306a98",
".F c #313131",
".h c #323232",
".q c #323233",
"#p c #326b98",
".g c #333333",
".i c #343434",
"#l c #346c99",
".f c #353535",
"#e c #356d99",
".e c #363636",
".d c #373737",
".c c #383838",
".D c #39556b",
".b c #3a3a3a",
"#H c #3b5c77",
".a c #3d3d3d",
".# c #3e3d3e",
".6 c #3e749f",
"#. c #41749f",
".7 c #41759f",
"#B c #4477a0",
".8 c #4778a1",
"#Q c #487496",
"#T c #48769a",
"#x c #487aa3",
".9 c #4c7da4",
"#M c #4e6d85",
".X c #4f7fa5",
"#k c #5383a8",
".Z c #5483a8",
"#f c #5583a8",
".Y c #5684a9",
"#K c #5e8aad",
"#u c #5f8aad",
"#S c #608bae",
"#q c #618cae",
"#j c #6991b2",
"#g c #6992b2",
"#R c #6a92b3",
"#i c #7097b6",
"#h c #7197b6",
".Q c #7298b6",
"#G c #759bba",
"#A c #769bba",
"#y c #769cba",
"#t c #779cba",
".J c #779dba",
"#L c #799ebb",
"#r c #7a9ebb",
"#s c #7ba0be",
"#z c #7ca0be",
".L c #85a7c2",
".s c #8aa8c0",
".K c #92b1ca",
".w c #95b2c8",
".A c #adc5d9",
".C c #b3cadd",
".B c #b7ccde",
".t c #d7e6f2",
".v c #dceaf5",
".u c #e1edf6",
"QtQtQtQtQtQtQtQtQtQtQtQtQtQtQtQtQtQtQtQt",
".#.#.#.#.#.#.#.#.#.#.#.#.#.#.#.#.#.#.#.#",
".a.a.a.a.a.a.a.a.a.a.a.a.a.a.a.a.a.a.a.a",
".b.b.b.b.b.b.b.b.b.b.b.b.b.b.b.b.b.b.b.b",
".c.c.c.c.c.c.c.d.d.d.d.d.d.d.d.d.c.c.c.c",
".e.e.e.e.e.e.e.d.f.g.h.f.c.d.e.e.e.e.e.e",
".f.f.f.f.f.f.i.j.k.l.m.n.o.p.f.f.f.f.f.f",
".g.g.g.g.h.q.r.s.t.u.u.v.w.x.y.i.i.g.g.g",
".h.h.h.h.q.z.A.B.B.B.B.B.B.C.D.E.h.h.h.h",
".F.F.G.H.I.J.K.K.K.K.K.K.K.K.L.M.p.h.F.F",
".N.N.N.O.P.Q.Q.Q.Q.Q.Q.Q.Q.Q.Q.R.S.G.N.N",
".T.H.U.V.W.X.Y.Y.Y.Y.Y.Y.Y.Y.Z.0.1.U.T.T",
".p.2.3.4.W.5.6.7.8.9.9.8#..6##.W#a#b.p.p",
".U.U.U#c.W#d#e#f#g#h#i#j#k#l#d.W#m#n.U.U",
".U.U.2#o.W#p#q.J#r#s#s#r#t#u##.W#v.3.U.U",
".3.3.3#b#w#x#y#r#s#z#z#s#s#A#B#C#D#E.3.3",
"#E#E#E#E#F.8#A#r#s#z#z#s#s#G#H#I#b#E#E#E",
"#b#b#b#b#n#J#K#y#L#s#s#r#y#M#N#O#b#b#b#b",
"#O#O#O#O#b#n#P#Q#q#R#R#S#T#U#O#O#O#O#O#O",
"#n#n#n#n#n#O#n#V#W#X#X#Y#O#n#n#n#n#n#n#n",
"#n#n#n#n#n#n#n#n#n#n#n#n#n#n#n#n#n#n#n#n",
"#n#n#n#n#n#n#n#n#n#n#n#n#n#n#n#n#n#n#n#n",
"#Z#Z#Z#Z#Z#Z#Z#Z#Z#Z#Z#Z#Z#Z#Z#Z#Z#Z#Z#Z",
"QtQtQtQtQtQtQtQtQtQtQtQtQtQtQtQtQtQtQtQt"};
