/* XPM */
static char *dummy[]={
"20 24 44 1",
". c #444444",
"p c #464646",
"k c #474747",
"l c #484848",
"A c #494949",
"D c #4a4a4a",
"v c #4b4b4b",
"P c #4d4d4d",
"w c #4f4f4f",
"B c #515151",
"y c #535353",
"m c #545454",
"J c #555555",
"j c #575757",
"H c #595959",
"I c #5b5b5b",
"F c #5d5d5d",
"f c #5f5f5f",
"E c #616161",
"O c #626162",
"M c #626262",
"L c #646464",
"N c #656465",
"K c #656565",
"C c #676767",
"z c #696969",
"G c #6a696a",
"q c #6a6a6a",
"g c #6c6b6c",
"e c #6c6c6c",
"s c #6e6e6e",
"o c #6f6f6f",
"x c #717171",
"u c #727172",
"t c #727272",
"n c #757475",
"i c #757575",
"h c #777777",
"d c #787878",
"c c #7b7a7b",
"b c #7d7d7d",
"r c #7e7e7e",
"a c #818081",
"# c #818181",
"....................",
"####################",
"aaaaaaaaaaaaaaaaaaaa",
"bbbbbbbbbbbbbbbbbbbb",
"cccccccccccccccccccc",
"ddddddddeffgdddddddd",
"hhhhhijkkklklmnhhhhh",
"nnnno.pqb##rslpsnnnn",
"tttu.vihhhhhhhwpottt",
"xxxypzooooooooe.wxxx",
"sssABCCCCCCCCCCyDess",
"eeEkyFfffffffffypFee",
"GGj.ymHIIFFIIHJypyGG",
"CCIkyyjfKCCKfjyykHCC",
"CCKDyjLzzzzzzMJylCCC",
"NNOBBIzzzzzzzzIBwMNN",
"MMEC.IzzzzzzzCI.CEMM",
"EEEMFkMzzzzzzElHLEEE",
"ffffCF.HLCCLH.HzFfff",
"FFFFFCtw.pp.PxCFFFFF",
"IIIIIIIzihhiqIIIIIII",
"IIIIIIIIIIIIIIIIIIII",
"HHHHHHHHHHHHHHHHHHHH",
"...................."};
