/* XPM */
static char *dummy[]={
"20 24 118 2",
"Qt c #202020",
"#N c #212121",
"#H c #222222",
"#U c #242424",
"#Z c #242425",
"#t c #252525",
"#B c #262626",
"#A c #272727",
".T c #282629",
"#b c #282828",
".P c #29272a",
".3 c #292929",
".O c #2a2a2a",
".h c #2b292c",
".I c #2b2b2b",
".V c #2c2c2c",
"#M c #2d292f",
".U c #2d2d2d",
".m c #2e2d2f",
".n c #2e2e2e",
".H c #2f2f2f",
".W c #301f37",
".i c #302036",
".z c #303030",
".G c #303031",
".l c #312137",
".x c #313031",
".y c #313131",
"#T c #322836",
".A c #323132",
".g c #323232",
".p c #333233",
".o c #333333",
".2 c #341f3d",
"#Y c #352a3a",
"#V c #352b39",
".f c #353535",
".e c #363636",
".d c #373737",
"#O c #38293f",
".c c #383838",
".J c #3a2145",
".b c #3a3a3a",
"#C c #3c2645",
".q c #3c2c43",
".a c #3d3d3d",
"#W c #3e2a46",
".# c #3e3d3e",
"#G c #3f264a",
"#X c #3f2a48",
".N c #41244e",
".w c #423249",
"#m c #423348",
".4 c #432351",
".j c #452e4f",
"#s c #45304f",
".k c #472f51",
"#c c #4a2b58",
"#a c #4b255b",
"#I c #4b2e58",
"#l c #4f2a5f",
".F c #533f5b",
".B c #563962",
"#u c #7d369a",
".Q c #7f379d",
"#z c #80379e",
".X c #8338a3",
"#d c #8339a3",
".1 c #843aa4",
".S c #8540a2",
".5 c #8541a3",
"#P c #865799",
"## c #8744a5",
"#r c #8745a5",
"#S c #87579c",
"#n c #8946a6",
"#k c #8948a5",
"#e c #8949a5",
".6 c #8b51a4",
"#L c #8b649b",
".7 c #8d53a5",
"#F c #8d56a5",
"#y c #8d57a5",
"#. c #8f58a5",
".8 c #8f59a5",
"#D c #8f59a6",
"#v c #905aa6",
".9 c #905ca6",
".Y c #9260a8",
"#j c #9263a7",
".0 c #9564a9",
"#f c #9565a9",
".Z c #9666aa",
"#J c #986cab",
"#q c #996dab",
"#R c #9a6eab",
"#o c #9a6fab",
"#i c #9d75ae",
"#g c #9d76ae",
"#Q c #9e76af",
"#h c #a17bb0",
".R c #a17cb1",
"#w c #a37fb2",
"#E c #a47fb4",
"#K c #a580b5",
".K c #a581b5",
"#p c #a783b6",
"#x c #a784b6",
".r c #ac90b7",
".M c #ad8dbb",
".L c #b597c1",
".v c #b59bc0",
".C c #c6afcf",
".E c #cab5d3",
".D c #cfbad7",
".s c #e6d9ec",
".u c #e7dbed",
".t c #efe4f4",
"QtQtQtQtQtQtQtQtQtQtQtQtQtQtQtQtQtQtQtQt",
".#.#.#.#.#.#.#.#.#.#.#.#.#.#.#.#.#.#.#.#",
".a.a.a.a.a.a.a.a.a.a.a.a.a.a.a.a.a.a.a.a",
".b.b.b.b.b.b.b.b.b.b.b.b.b.b.b.b.b.b.b.b",
".c.c.c.c.c.c.d.d.d.d.d.d.d.d.c.c.c.c.c.c",
".e.e.e.e.e.f.e.e.f.g.g.f.d.e.e.e.e.e.e.e",
".f.f.f.f.f.f.g.h.i.j.k.l.m.n.f.f.f.f.f.f",
".o.o.g.g.o.p.q.r.s.t.t.u.v.w.x.g.g.g.o.o",
".g.g.y.z.A.B.C.D.D.D.D.D.D.E.F.G.g.g.g.g",
".y.z.H.I.J.K.L.L.L.L.L.L.L.L.M.N.O.y.y.y",
".H.H.z.P.Q.R.R.R.R.R.R.R.R.R.R.S.T.n.H.H",
".n.U.V.W.X.Y.Z.Z.Z.Z.Z.Z.Z.Z.0.1.2.3.n.n",
".V.V.I.4.X.5.6.7.8.9.9#..7.6##.X#a#b.V.V",
".O.O.O#c.X#d#e#f#g#h#h#i#j#k#d.X#l#b.O.O",
".O.O.I#m.X#n#o.K#p#p#p#p.K#q#r.X#s.O.O.O",
".3.3#b#t#u#v#w#p#p#x#x#p#p#w#y#z#A#b.3.3",
"#b#b#b#B#C#D#w#p#p#x#x#p#p#E#F#G#A#b#b#b",
"#A#A#A#b#H#I#J#K#p#p#p#p#w#L#M#A#A#A#A#A",
"#B#B#B#B#b#N#O#P#o#Q#Q#R#S#T#B#A#B#B#B#B",
"#t#t#t#t#t#B#B#U#V#W#X#Y#Z#B#B#t#t#t#t#t",
"#t#t#t#t#t#t#t#t#t#t#t#t#t#t#t#t#t#t#t#t",
"#t#t#t#t#t#t#t#t#t#t#t#t#t#t#t#t#t#t#t#t",
"#U#U#U#U#U#U#U#U#U#U#U#U#U#U#U#U#U#U#U#U",
"QtQtQtQtQtQtQtQtQtQtQtQtQtQtQtQtQtQtQtQt"};
