/* XPM */
static char *dummy[]={
"20 24 121 2",
"Qt c #202020",
"#2 c #242424",
"#X c #252525",
"#P c #262626",
"#J c #272727",
"#D c #282828",
"#u c #292929",
"#C c #2a2929",
"#. c #2a2a2a",
"#l c #2b2b2b",
".R c #2c2c2c",
".O c #2d2923",
".K c #2d2a26",
"#k c #2d2d2d",
".Q c #2e2e2e",
".l c #2f2b27",
".J c #2f2f2f",
".g c #302c29",
".P c #303030",
".x c #313131",
".w c #323232",
"#v c #333231",
".n c #333333",
".m c #343434",
".f c #353535",
".y c #363433",
".o c #363534",
".e c #363636",
".d c #373737",
"#K c #383228",
".c c #383838",
"#W c #393026",
".b c #3a3a3a",
".a c #3d3d3d",
".# c #3e3d3e",
"#Y c #413528",
"#1 c #423527",
".h c #473019",
".S c #483016",
".k c #493118",
".Y c #49341c",
"#Z c #513b23",
"#Q c #523b22",
"#0 c #523c23",
".p c #584025",
"#O c #5b4226",
"#E c #5f3f1c",
".E c #603b12",
".v c #61482d",
"#I c #62401a",
"#m c #684d30",
"#t c #6a4a28",
".i c #6d4a24",
".I c #6f4414",
".j c #704c26",
".Z c #724412",
"## c #7e4f1b",
".9 c #834d12",
".z c #895d2e",
"#j c #8a5317",
".D c #956a3b",
"#V c #ae7b43",
"#N c #d99d5c",
"#w c #da7b15",
"#R c #da944a",
".L c #dd7c13",
"#B c #de7d15",
".N c #e18521",
".q c #e1b990",
".T c #e27f14",
"#i c #e27f15",
"#a c #e28015",
".X c #e28017",
".0 c #e38621",
".8 c #e48825",
"#s c #e48926",
"#n c #e48a29",
"#h c #e48c2c",
"#b c #e48c2d",
".1 c #e69339",
".7 c #e6933a",
".2 c #e6953d",
".u c #e6c29b",
"#H c #e79741",
"#A c #e79842",
".6 c #e79a45",
".3 c #e79a46",
"#F c #e89a46",
"#x c #e89b47",
".5 c #e89d4d",
".4 c #e89e4d",
"#f c #e8ae6f",
"#d c #e8af70",
"#T c #e8af71",
"#M c #e8b47d",
".F c #e8b57e",
".U c #e9a051",
"#g c #e9a356",
"#e c #e9b278",
"#q c #e9b681",
".W c #eaa357",
"#c c #eaa459",
".V c #eaa55a",
"#U c #eaaa67",
"#o c #eaab67",
"#S c #eaab68",
".M c #eab37a",
"#G c #eab57c",
"#z c #eab57d",
"#y c #eab67e",
".H c #eabc8c",
"#p c #ebb882",
".G c #ebc399",
"#L c #ecaa64",
"#r c #ecab65",
".A c #f0d2b1",
".C c #f1d5b6",
".B c #f3d9bc",
".r c #fae8d6",
".t c #faeada",
".s c #fbeddf",
"QtQtQtQtQtQtQtQtQtQtQtQtQtQtQtQtQtQtQtQt",
".#.#.#.#.#.#.#.#.#.#.#.#.#.#.#.#.#.#.#.#",
".a.a.a.a.a.a.a.a.a.a.a.a.a.a.a.a.a.a.a.a",
".b.b.b.b.b.b.b.b.b.b.b.b.b.b.b.b.b.b.b.b",
".c.c.c.c.c.c.c.d.d.d.d.d.d.d.d.c.c.c.c.c",
".e.e.e.e.e.e.e.d.c.c.c.c.e.e.e.e.e.e.e.e",
".f.f.f.f.e.d.c.g.h.i.j.k.l.f.m.f.f.f.f.f",
".n.n.n.m.f.o.p.q.r.s.s.t.u.v.w.w.n.n.n.n",
".w.w.x.w.y.z.A.B.B.B.B.B.B.C.D.x.w.w.w.w",
".x.x.w.f.E.F.G.G.G.G.G.G.G.G.H.I.w.x.x.x",
".J.J.J.K.L.M.M.M.M.M.M.M.M.M.M.N.O.P.J.J",
".Q.R.Q.S.T.U.V.V.V.V.V.V.V.V.W.X.Y.J.J.Q",
".R.R.J.Z.T.0.1.2.3.4.5.6.2.7.8.T.9.R.R.R",
"#..R.x##.T#a#b#c#d#e#e#f#g#h#i.T#j#k#l#.",
"#.#..Q#m.T#n#o.F#p#q#q#p.F#r#s.T#t#.#.#.",
"#u#u#l#v#w#x#y#p#q#q#q#q#q#z#A#B#C#u#u#u",
"#D#D#D#D#E#F#z#p#q#q#q#q#q#G#H#I#D#D#D#D",
"#J#J#J#D#D#K#L#M#p#q#q#p#z#N#O#u#J#J#J#J",
"#P#P#P#P#J#D#Q#R#S#T#T#U#V#W#J#J#P#P#P#P",
"#X#X#X#X#X#P#P#J#Y#Z#0#1#P#X#P#X#X#X#X#X",
"#X#X#X#X#X#X#X#X#X#X#X#P#P#X#X#X#X#X#X#X",
"#X#X#X#X#X#X#X#X#X#X#X#X#X#X#X#X#X#X#X#X",
"#2#2#2#2#2#2#2#2#2#2#2#2#2#2#2#2#2#2#2#2",
"QtQtQtQtQtQtQtQtQtQtQtQtQtQtQtQtQtQtQtQt"};
