/* XPM */
static char *dummy[]={
"20 24 71 2",
"Qt c #202020",
"#e c #242424",
"#b c #252525",
"#a c #262626",
".8 c #272727",
".G c #282828",
".U c #292929",
".4 c #2a292a",
".F c #2a2a2a",
".w c #2b2b2b",
".M c #2c2c2c",
".B c #2d2d2d",
".A c #2e2e2e",
".j c #2f2f2f",
".u c #303030",
".v c #313131",
".h c #323232",
".g c #333333",
".i c #343434",
".f c #353535",
".e c #363636",
".d c #373737",
".c c #383838",
".b c #3a3a3a",
".a c #3d3d3d",
".# c #3e3d3e",
".t c #3e3e3e",
".H c #404040",
".5 c #444444",
".3 c #454545",
".C c #464646",
".N c #484848",
".L c #4a4a4a",
".E c #4f4f4f",
".T c #525252",
".Z c #545454",
".V c #575757",
"#c c #5a5a5a",
"#. c #5c5c5c",
".O c #5d5d5d",
".S c #5f5f5f",
".P c #616161",
".7 c #646464",
".p c #656565",
".Q c #676767",
".R c #6b6b6b",
".I c #6e6e6e",
".Y c #717171",
".K c #727272",
".J c #757575",
"## c #7b7b7b",
".2 c #7c7c7c",
".0 c #7f7f7f",
".W c #868686",
"#d c #878787",
".X c #8e8e8e",
".D c #8f8f8f",
".9 c #919191",
".6 c #929292",
".x c #939393",
".1 c #969696",
".z c #a2a2a2",
".k c #a3a3a3",
".y c #ababab",
".q c #c2c2c2",
".s c #c7c7c7",
".r c #cbcbcb",
".o c #dfdfdf",
".l c #e5e5e5",
".n c #e9e9e9",
".m c #ececec",
"QtQtQtQtQtQtQtQtQtQtQtQtQtQtQtQtQtQtQtQt",
".#.#.#.#.#.#.#.#.#.#.#.#.#.#.#.#.#.#.#.#",
".a.a.a.a.a.a.a.a.a.a.a.a.a.a.a.a.a.a.a.a",
".b.b.b.b.b.b.b.b.b.b.b.b.b.b.b.b.b.b.b.b",
".c.c.c.c.c.c.d.d.c.c.d.d.d.d.c.c.c.c.c.c",
".e.e.e.e.e.f.e.d.d.d.e.e.e.f.e.e.e.e.e.e",
".f.f.f.f.f.f.g.g.h.g.g.h.g.h.g.g.i.f.f.f",
".g.g.g.g.h.i.j.k.l.m.n.o.p.f.h.h.h.h.g.g",
".h.h.h.h.h.a.q.r.r.r.r.r.r.s.t.u.h.h.h.h",
".v.v.v.u.w.x.y.y.y.y.y.y.y.y.z.A.B.v.v.v",
".j.j.j.w.C.D.D.D.D.D.D.D.D.D.D.E.F.j.j.j",
".A.B.w.G.H.I.J.J.J.J.J.J.J.J.K.L.G.w.M.A",
".M.M.F.w.N.E.O.P.Q.R.R.p.S.S.T.N.w.F.w.w",
".F.F.U.A.N.L.V.K.W.X.X.W.Y.V.N.N.M.U.F.F",
".F.F.F.d.N.Z.0.x.1.1.1.1.x.2.T.3.A.4.F.F",
".U.U.U.G.5.Q.6.1.1.1.1.1.1.6.7.C.B.G.U.U",
".G.G.G.8.F.S.6.1.1.1.1.1.1.9#..U.8.G.G.G",
".8.8.8.8.8.w.2.6.1.1.1.1.6##.j#a.8.8.8.8",
"#a#a#a#a#a#b.F#c.0#d#d.K.C.G#a#a#a#a#a#a",
"#b#b#b#b#b#a#a.u.A.A.A.U.G#a#a#b#b#b#b#b",
"#b#b#b#b#b#b#b#a#b#b#b#b#b#b#b#b#b#b#b#b",
"#b#b#b#b#b#b#b#b#b#b#b#b#b#b#b#b#b#b#b#b",
"#e#e#e#e#e#e#e#e#e#e#e#e#e#e#e#e#e#e#e#e",
"QtQtQtQtQtQtQtQtQtQtQtQtQtQtQtQtQtQtQtQt"};
