/* XPM */
static char *dummy[]={
"5 24 26 1",
"# c None",
"j c #444444",
"c c #464646",
". c #484848",
"g c #4b4b4b",
"b c #515151",
"e c #595959",
"x c #5b5b5b",
"w c #5d5d5d",
"v c #5f5f5f",
"u c #616161",
"t c #626262",
"s c #656465",
"r c #676767",
"q c #6a696a",
"p c #6c6c6c",
"o c #6e6e6e",
"n c #717171",
"m c #727272",
"l c #757475",
"k c #777777",
"i c #787878",
"h c #7b7a7b",
"f c #7d7d7d",
"d c #818081",
"a c #818181",
".####",
"abc##",
"ddec#",
"fffg#",
"hhhhc",
"iiiij",
"kkkkj",
"llllj",
"mmmmj",
"nnnnj",
"ooooj",
"ppppj",
"qqqqj",
"rrrrj",
"rrrrj",
"ssssj",
"ttttj",
"uuuuj",
"vvvvj",
"wwwwj",
"xxxxj",
"xxxxj",
"eeeej",
"jjjjj"};
