/* XPM */
static char *dummy[]={
"5 24 24 1",
". c None",
"a c #444444",
"# c #464646",
"e c #4a4a4a",
"b c #4e4e4e",
"d c #555555",
"v c #575757",
"u c #595959",
"t c #5a5a5a",
"s c #5c5c5c",
"r c #5e5e5e",
"q c #606060",
"p c #636263",
"o c #656565",
"n c #666666",
"m c #686868",
"l c #6b6b6b",
"k c #6d6d6d",
"j c #6e6d6e",
"i c #707070",
"h c #737373",
"g c #767676",
"f c #797979",
"c c #7c7c7c",
"....#",
"..abc",
".adcc",
".efff",
"agggg",
"#gggg",
"#hhhh",
"#iiii",
"#jjjj",
"#kkkk",
"#llll",
"#mmmm",
"#nnnn",
"#oooo",
"#pppp",
"#qqqq",
"#rrrr",
"#rrrr",
"#ssss",
"#tttt",
"#uuuu",
"#vvvv",
"#dddd",
"#####"};
